<svg xmlns="http://www.w3.org/2000/svg" viewBox="0 0 100 100" fill="none" x="0px" y="0px"><path d="M95 38.831C95 51.1897 88.5494 72.5028 71.1081 80.8239C69.4705 81.6051 68.4457 79.6039 69.8095 78.413C81.7181 68.015 85.7365 57.2426 75 58.662C63.9543 58.662 55 49.7834 55 38.831C55 27.8786 63.9543 19 75 19C86.0457 19 95 27.8786 95 38.831Z" fill="#2f2a32"/><path d="M45 38.831C45 51.1897 38.5494 72.5028 21.1081 80.8239C19.4705 81.6051 18.4457 79.6039 19.8095 78.413C31.7181 68.015 35.7365 57.2426 25 58.662C13.9543 58.662 5 49.7834 5 38.831C5 27.8786 13.9543 19 25 19C36.0457 19 45 27.8786 45 38.831Z" fill="#2f2a32"/></svg>